<?xml version="1.0" standalone="no"?>
<!DOCTYPE svg PUBLIC "-//W3C//DTD SVG 20010904//EN"
 "http://www.w3.org/TR/2001/REC-SVG-20010904/DTD/svg10.dtd">
<svg version="1.0" xmlns="http://www.w3.org/2000/svg"
 width="1024.000000pt" height="1024.000000pt" viewBox="0 0 1024.000000 1024.000000"
 preserveAspectRatio="xMidYMid meet">
<metadata>
Created by potrace 1.11, written by Peter Selinger 2001-2013
</metadata>
<g transform="translate(0.000000,1024.000000) scale(0.100000,-0.100000)"
fill="#000000" stroke="none">
<path d="M0 5120 l0 -5120 5120 0 5120 0 0 5120 0 5120 -5120 0 -5120 0 0
-5120z m5780 3250 c364 -448 656 -816 648 -817 -7 -2 -88 10 -180 25 l-167 29
-189 -152 -190 -151 -353 42 -354 43 -267 -110 c-147 -60 -271 -109 -276 -109
-8 0 -41 87 -155 407 -16 46 -26 62 -37 58 -60 -18 -512 -116 -517 -112 -2 3
305 379 683 836 378 457 689 829 690 828 1 -1 300 -369 664 -817z m1915 -1994
c62 -166 444 -1260 441 -1263 -2 -2 -95 146 -206 329 l-203 333 -213 215 -212
215 -116 364 c-64 200 -116 367 -116 372 0 5 137 -111 305 -258 254 -222 307
-273 320 -307z m-1438 -164 c226 -361 410 -658 408 -661 -2 -2 -104 33 -225
78 l-221 82 -193 -110 c-106 -61 -196 -111 -200 -111 -4 0 -83 61 -175 135
l-170 136 -276 -117 c-151 -64 -277 -115 -279 -113 -4 5 907 1338 914 1338 3
0 190 -296 417 -657z m-1254 -124 c-23 -39 -656 -889 -659 -886 -5 6 47 432
54 440 9 9 606 457 610 458 2 0 0 -6 -5 -12z m-1749 -789 c36 -102 72 -222 82
-266 l17 -81 -32 -63 c-71 -135 -243 -392 -761 -1134 -255 -366 -1195 -1674
-1222 -1700 -16 -16 -7 1 692 1280 367 671 674 1234 683 1251 9 17 86 298 172
625 86 327 158 601 161 609 7 18 121 -267 208 -521z m3783 -676 l181 -288 100
-347 c54 -191 96 -346 92 -343 -3 2 -98 79 -211 170 -112 92 -209 169 -215
171 -6 3 -100 -47 -209 -111 -109 -63 -200 -114 -202 -111 -5 5 270 1146 277
1146 3 0 87 -129 187 -287z m1558 -531 c260 -130 516 -322 631 -476 64 -84 99
-159 149 -311 53 -160 86 -313 119 -555 22 -155 46 -420 39 -420 -1 0 -72 138
-158 306 l-157 306 -189 186 -190 187 -179 409 c-99 225 -180 411 -180 413 0
8 45 -9 115 -45z m-2562 -546 c-75 -256 -139 -466 -142 -466 -4 0 -20 136 -37
302 l-31 303 171 166 c94 92 172 166 174 164 1 -1 -59 -212 -135 -469z m-2389
-507 l-76 -234 -230 -402 c-126 -222 -231 -403 -232 -403 -2 0 17 138 42 308
l45 307 121 117 c112 108 131 132 261 331 77 118 141 213 143 212 1 -1 -32
-107 -74 -236z"/>
</g>
</svg>
